<mxfile host="app.diagrams.net" modified="2023-08-19T15:11:17.358Z" agent="Mozilla/5.0 (Windows NT 10.0; Win64; x64) AppleWebKit/537.36 (KHTML, like Gecko) Chrome/115.0.0.0 Safari/537.36 Edg/115.0.1901.203" etag="F4qtisj_vS8-xmAMqf5P" version="21.3.8" type="device">
  <diagram name="Page-1" id="EQp3YIXp6IzAEhl3FMhO">
    <mxGraphModel dx="1434" dy="788" grid="1" gridSize="10" guides="1" tooltips="1" connect="1" arrows="1" fold="1" page="1" pageScale="1" pageWidth="827" pageHeight="1169" math="0" shadow="0">
      <root>
        <mxCell id="0" />
        <mxCell id="1" parent="0" />
        <mxCell id="ujY7jJbF7i0CoF3rO7TS-48" style="edgeStyle=orthogonalEdgeStyle;rounded=0;orthogonalLoop=1;jettySize=auto;html=1;exitX=1;exitY=0.5;exitDx=0;exitDy=0;entryX=0;entryY=0.5;entryDx=0;entryDy=0;" edge="1" parent="1" source="ujY7jJbF7i0CoF3rO7TS-14" target="ujY7jJbF7i0CoF3rO7TS-20">
          <mxGeometry relative="1" as="geometry" />
        </mxCell>
        <mxCell id="ujY7jJbF7i0CoF3rO7TS-14" value="CILFile" style="swimlane;whiteSpace=wrap;html=1;" vertex="1" parent="1">
          <mxGeometry x="304" y="70" width="110" height="160" as="geometry" />
        </mxCell>
        <mxCell id="ujY7jJbF7i0CoF3rO7TS-15" value="" style="rounded=0;whiteSpace=wrap;html=1;" vertex="1" parent="ujY7jJbF7i0CoF3rO7TS-14">
          <mxGeometry x="10" y="50" width="80" height="40" as="geometry" />
        </mxCell>
        <mxCell id="ujY7jJbF7i0CoF3rO7TS-16" value="" style="rounded=0;whiteSpace=wrap;html=1;" vertex="1" parent="ujY7jJbF7i0CoF3rO7TS-14">
          <mxGeometry x="10" y="110" width="80" height="40" as="geometry" />
        </mxCell>
        <mxCell id="ujY7jJbF7i0CoF3rO7TS-11" value="CIL streams" style="rounded=0;whiteSpace=wrap;html=1;" vertex="1" parent="ujY7jJbF7i0CoF3rO7TS-14">
          <mxGeometry x="20" y="100" width="80" height="40" as="geometry" />
        </mxCell>
        <mxCell id="ujY7jJbF7i0CoF3rO7TS-10" value="CIL meta tables" style="rounded=0;whiteSpace=wrap;html=1;" vertex="1" parent="ujY7jJbF7i0CoF3rO7TS-14">
          <mxGeometry x="20" y="40" width="80" height="40" as="geometry" />
        </mxCell>
        <mxCell id="ujY7jJbF7i0CoF3rO7TS-49" style="edgeStyle=orthogonalEdgeStyle;rounded=0;orthogonalLoop=1;jettySize=auto;html=1;exitX=1;exitY=0.5;exitDx=0;exitDy=0;entryX=0;entryY=0.5;entryDx=0;entryDy=0;" edge="1" parent="1" source="ujY7jJbF7i0CoF3rO7TS-20" target="ujY7jJbF7i0CoF3rO7TS-24">
          <mxGeometry relative="1" as="geometry" />
        </mxCell>
        <mxCell id="ujY7jJbF7i0CoF3rO7TS-20" value="Symbol factories" style="swimlane;whiteSpace=wrap;html=1;startSize=23;rounded=1;" vertex="1" parent="1">
          <mxGeometry x="460" y="30" width="170" height="240" as="geometry" />
        </mxCell>
        <mxCell id="ujY7jJbF7i0CoF3rO7TS-19" value="AssemblyFactory" style="rounded=1;whiteSpace=wrap;html=1;" vertex="1" parent="ujY7jJbF7i0CoF3rO7TS-20">
          <mxGeometry x="10" y="40" width="150" height="40" as="geometry" />
        </mxCell>
        <mxCell id="ujY7jJbF7i0CoF3rO7TS-17" value="MethodSymbolFactory" style="rounded=1;whiteSpace=wrap;html=1;" vertex="1" parent="ujY7jJbF7i0CoF3rO7TS-20">
          <mxGeometry x="10" y="90" width="150" height="40" as="geometry" />
        </mxCell>
        <mxCell id="ujY7jJbF7i0CoF3rO7TS-18" value="NamedTypeSymbolFactory" style="rounded=1;whiteSpace=wrap;html=1;" vertex="1" parent="ujY7jJbF7i0CoF3rO7TS-20">
          <mxGeometry x="10" y="140" width="150" height="40" as="geometry" />
        </mxCell>
        <mxCell id="ujY7jJbF7i0CoF3rO7TS-23" value="..." style="rounded=1;whiteSpace=wrap;html=1;" vertex="1" parent="ujY7jJbF7i0CoF3rO7TS-20">
          <mxGeometry x="10" y="190" width="150" height="40" as="geometry" />
        </mxCell>
        <mxCell id="ujY7jJbF7i0CoF3rO7TS-24" value="Symbols" style="swimlane;whiteSpace=wrap;html=1;" vertex="1" parent="1">
          <mxGeometry x="680" y="70" width="150" height="160" as="geometry" />
        </mxCell>
        <mxCell id="ujY7jJbF7i0CoF3rO7TS-25" value="" style="rounded=0;whiteSpace=wrap;html=1;" vertex="1" parent="ujY7jJbF7i0CoF3rO7TS-24">
          <mxGeometry x="10" y="50" width="120" height="40" as="geometry" />
        </mxCell>
        <mxCell id="ujY7jJbF7i0CoF3rO7TS-26" value="" style="rounded=0;whiteSpace=wrap;html=1;" vertex="1" parent="ujY7jJbF7i0CoF3rO7TS-24">
          <mxGeometry x="10" y="110" width="120" height="40" as="geometry" />
        </mxCell>
        <mxCell id="ujY7jJbF7i0CoF3rO7TS-21" value="MethodSymbol" style="rounded=0;whiteSpace=wrap;html=1;" vertex="1" parent="ujY7jJbF7i0CoF3rO7TS-24">
          <mxGeometry x="20" y="100" width="120" height="40" as="geometry" />
        </mxCell>
        <mxCell id="ujY7jJbF7i0CoF3rO7TS-22" value="NamedTypeSymbol" style="rounded=0;whiteSpace=wrap;html=1;" vertex="1" parent="ujY7jJbF7i0CoF3rO7TS-24">
          <mxGeometry x="20" y="40" width="120" height="40" as="geometry" />
        </mxCell>
        <mxCell id="ujY7jJbF7i0CoF3rO7TS-51" style="edgeStyle=orthogonalEdgeStyle;rounded=0;orthogonalLoop=1;jettySize=auto;html=1;exitX=0;exitY=0.5;exitDx=0;exitDy=0;entryX=1;entryY=0.5;entryDx=0;entryDy=0;" edge="1" parent="1" source="ujY7jJbF7i0CoF3rO7TS-27" target="ujY7jJbF7i0CoF3rO7TS-31">
          <mxGeometry relative="1" as="geometry" />
        </mxCell>
        <mxCell id="ujY7jJbF7i0CoF3rO7TS-27" value="CILMethodNode::create" style="rounded=1;whiteSpace=wrap;html=1;" vertex="1" parent="1">
          <mxGeometry x="560" y="470" width="140" height="40" as="geometry" />
        </mxCell>
        <mxCell id="ujY7jJbF7i0CoF3rO7TS-55" style="edgeStyle=orthogonalEdgeStyle;rounded=0;orthogonalLoop=1;jettySize=auto;html=1;exitX=0;exitY=0.5;exitDx=0;exitDy=0;entryX=0;entryY=0;entryDx=60;entryDy=60;entryPerimeter=0;" edge="1" parent="1" source="ujY7jJbF7i0CoF3rO7TS-28" target="ujY7jJbF7i0CoF3rO7TS-33">
          <mxGeometry relative="1" as="geometry" />
        </mxCell>
        <mxCell id="ujY7jJbF7i0CoF3rO7TS-28" value="Interpreter" style="rounded=1;whiteSpace=wrap;html=1;" vertex="1" parent="1">
          <mxGeometry x="195" y="455" width="90" height="70" as="geometry" />
        </mxCell>
        <mxCell id="ujY7jJbF7i0CoF3rO7TS-52" style="edgeStyle=orthogonalEdgeStyle;rounded=0;orthogonalLoop=1;jettySize=auto;html=1;exitX=0;exitY=0.5;exitDx=0;exitDy=0;entryX=1;entryY=0.5;entryDx=0;entryDy=0;" edge="1" parent="1" source="ujY7jJbF7i0CoF3rO7TS-31" target="ujY7jJbF7i0CoF3rO7TS-28">
          <mxGeometry relative="1" as="geometry" />
        </mxCell>
        <mxCell id="ujY7jJbF7i0CoF3rO7TS-31" value="Interpreted CIL code" style="swimlane;whiteSpace=wrap;html=1;" vertex="1" parent="1">
          <mxGeometry x="340" y="420" width="155" height="140" as="geometry" />
        </mxCell>
        <mxCell id="ujY7jJbF7i0CoF3rO7TS-29" value="CILMethodNode" style="rounded=0;whiteSpace=wrap;html=1;" vertex="1" parent="ujY7jJbF7i0CoF3rO7TS-31">
          <mxGeometry x="17.5" y="30" width="120" height="40" as="geometry" />
        </mxCell>
        <mxCell id="ujY7jJbF7i0CoF3rO7TS-32" value="" style="rounded=0;whiteSpace=wrap;html=1;" vertex="1" parent="ujY7jJbF7i0CoF3rO7TS-31">
          <mxGeometry x="25" y="90" width="80" height="40" as="geometry" />
        </mxCell>
        <mxCell id="ujY7jJbF7i0CoF3rO7TS-30" value="CallNode" style="rounded=0;whiteSpace=wrap;html=1;" vertex="1" parent="ujY7jJbF7i0CoF3rO7TS-31">
          <mxGeometry x="37.5" y="80" width="80" height="40" as="geometry" />
        </mxCell>
        <mxCell id="ujY7jJbF7i0CoF3rO7TS-33" value="Output" style="shape=note;whiteSpace=wrap;html=1;backgroundOutline=1;darkOpacity=0.05;" vertex="1" parent="1">
          <mxGeometry x="50" y="430" width="60" height="90" as="geometry" />
        </mxCell>
        <mxCell id="ujY7jJbF7i0CoF3rO7TS-56" style="edgeStyle=orthogonalEdgeStyle;rounded=0;orthogonalLoop=1;jettySize=auto;html=1;exitX=0;exitY=0.5;exitDx=0;exitDy=0;entryX=1;entryY=0.5;entryDx=0;entryDy=0;dashed=1;" edge="1" parent="1" source="ujY7jJbF7i0CoF3rO7TS-35" target="ujY7jJbF7i0CoF3rO7TS-36">
          <mxGeometry relative="1" as="geometry" />
        </mxCell>
        <mxCell id="ujY7jJbF7i0CoF3rO7TS-35" value="SymbolResolver" style="rounded=1;whiteSpace=wrap;html=1;" vertex="1" parent="1">
          <mxGeometry x="320" y="320" width="120" height="40" as="geometry" />
        </mxCell>
        <mxCell id="ujY7jJbF7i0CoF3rO7TS-36" value="Context" style="rounded=1;whiteSpace=wrap;html=1;" vertex="1" parent="1">
          <mxGeometry x="200" y="320" width="80" height="40" as="geometry" />
        </mxCell>
        <mxCell id="ujY7jJbF7i0CoF3rO7TS-37" value="Static analysis" style="rounded=1;whiteSpace=wrap;html=1;" vertex="1" parent="1">
          <mxGeometry x="480" y="322" width="80" height="38" as="geometry" />
        </mxCell>
        <mxCell id="ujY7jJbF7i0CoF3rO7TS-38" value="GuestAllocator" style="rounded=1;whiteSpace=wrap;html=1;" vertex="1" parent="1">
          <mxGeometry x="40" y="320" width="120" height="38" as="geometry" />
        </mxCell>
        <mxCell id="ujY7jJbF7i0CoF3rO7TS-41" value="CILOSTAZOL stub method implementations" style="rounded=1;whiteSpace=wrap;html=1;" vertex="1" parent="1">
          <mxGeometry x="590" y="311" width="120" height="60" as="geometry" />
        </mxCell>
        <mxCell id="ujY7jJbF7i0CoF3rO7TS-8" value=".dll" style="shape=cube;whiteSpace=wrap;html=1;boundedLbl=1;backgroundOutline=1;darkOpacity=0.05;darkOpacity2=0.1;" vertex="1" parent="1">
          <mxGeometry x="40" y="130" width="80" height="50" as="geometry" />
        </mxCell>
        <mxCell id="ujY7jJbF7i0CoF3rO7TS-46" style="edgeStyle=orthogonalEdgeStyle;rounded=0;orthogonalLoop=1;jettySize=auto;html=1;exitX=1;exitY=1;exitDx=0;exitDy=0;exitPerimeter=0;entryX=0;entryY=0.5;entryDx=0;entryDy=0;" edge="1" parent="1" source="ujY7jJbF7i0CoF3rO7TS-43" target="ujY7jJbF7i0CoF3rO7TS-9">
          <mxGeometry relative="1" as="geometry">
            <Array as="points">
              <mxPoint x="140" y="150" />
              <mxPoint x="140" y="150" />
            </Array>
          </mxGeometry>
        </mxCell>
        <mxCell id="ujY7jJbF7i0CoF3rO7TS-43" value=".dll" style="shape=cube;whiteSpace=wrap;html=1;boundedLbl=1;backgroundOutline=1;darkOpacity=0.05;darkOpacity2=0.1;" vertex="1" parent="1">
          <mxGeometry x="40" y="100" width="80" height="50" as="geometry" />
        </mxCell>
        <mxCell id="ujY7jJbF7i0CoF3rO7TS-47" style="edgeStyle=orthogonalEdgeStyle;rounded=0;orthogonalLoop=1;jettySize=auto;html=1;exitX=1;exitY=0.5;exitDx=0;exitDy=0;entryX=0;entryY=0.5;entryDx=0;entryDy=0;" edge="1" parent="1" source="ujY7jJbF7i0CoF3rO7TS-9" target="ujY7jJbF7i0CoF3rO7TS-14">
          <mxGeometry relative="1" as="geometry">
            <mxPoint x="320" y="150" as="targetPoint" />
          </mxGeometry>
        </mxCell>
        <mxCell id="ujY7jJbF7i0CoF3rO7TS-9" value="low-level parser" style="rounded=1;whiteSpace=wrap;html=1;" vertex="1" parent="1">
          <mxGeometry x="160" y="130" width="100" height="40" as="geometry" />
        </mxCell>
        <mxCell id="ujY7jJbF7i0CoF3rO7TS-50" style="edgeStyle=orthogonalEdgeStyle;rounded=0;orthogonalLoop=1;jettySize=auto;html=1;exitX=0.5;exitY=1;exitDx=0;exitDy=0;entryX=1;entryY=0.5;entryDx=0;entryDy=0;" edge="1" parent="1" source="ujY7jJbF7i0CoF3rO7TS-21" target="ujY7jJbF7i0CoF3rO7TS-27">
          <mxGeometry relative="1" as="geometry" />
        </mxCell>
      </root>
    </mxGraphModel>
  </diagram>
</mxfile>
